<svg xmlns="http://www.w3.org/2000/svg" width="574" height="163" version="1"><path fill="#cbcbcb" d="M264 81V34h96v95h-96V81zm109 31c-6-4-7-7-7-29l1-23c3-7 15-11 27-9 9 2 13 7 13 15l1 5h-5c-4 0-5-1-5-5-1-3-1-4-5-6-5-2-11-1-15 2-1 2-2 5-2 20 0 22 1 23 11 23 8 0 11-2 11-9v-6h-13v-4l1-4h21v11c1 12 0 15-6 18-5 3-22 4-28 1zm51 0c-7-3-8-5-8-34V51h10v25c0 29 0 29 11 29 5 0 7-1 9-2 3-3 3-5 3-27V51h4l5 1v25c1 28 0 31-7 35-6 2-21 2-27 0zm57-10V90l-9-19c-10-20-10-20-2-20 3 1 4 2 9 14l7 13 7-14c7-13 7-13 11-13 3 0 5 1 5 2l-9 17-8 17-1 13v13l-5 1h-5v-12zm37 9c-5-3-7-6-7-13v-6l5 1c4 0 5 0 5 4l2 6c3 4 16 3 18-1l1-6c1-5-1-7-17-12-12-5-16-12-12-23 2-7 7-10 19-10 14 0 19 4 20 14 0 6 0 6-5 6-4 0-4 0-4-3 0-7-8-11-16-8-3 1-5 2-5 5-1 5 1 7 10 11 18 6 21 9 20 21 0 12-5 17-21 17-7 0-10-1-13-3zM21 80V49h10v25h21l1-12V49h10v62H53V97l-1-14H31v12c0 15 0 16-6 16h-4V80zm53 30V49h35v9H84v16h23v4l1 5H84v20h26v8H92l-18-1zm39 0l9-31 9-30h4c4 0 5 0 6 2 2 3 18 57 18 59l-5 1c-5 0-5-1-7-8l-3-8h-17l-3 8c-2 7-2 8-6 8l-5-1zm26-32l-3-13a323 323 0 0 1-5 16l-2 7h13l-3-10zm26 2V49h14c15 0 23 2 26 7l1 24c0 22 0 22-3 25-4 5-10 6-25 6h-13V80zm29 20c2-1 2-5 2-20 0-22 0-22-13-22h-8v45l9-1 10-2zm29 9c-6-3-8-7-8-14v-5h5c5 0 5 0 5 4l1 6c2 3 14 4 19 1l1-7-1-6-12-5-13-7c-3-3-4-4-4-11 0-6 1-8 3-11 8-9 32-7 36 3l1 7c0 5 0 5-5 5s-5 0-5-4c0-6-1-7-8-8s-11 1-11 7v5l12 5c15 6 17 9 17 20 0 9-1 12-7 15-5 3-21 3-26 0z"/><path fill="#989898" d="M264 81V34h95v95h-95V81zm110 30c-6-3-8-7-8-28 0-22 2-26 8-30 5-2 19-2 25 0 5 2 9 8 8 14 0 3 0 4-5 4-4 0-4-1-5-5 0-5-4-7-10-7-4 0-8 2-10 4v39c3 4 15 5 19 1l2-7v-6h-6c-6-1-6-1-6-4s0-3 11-3l11-1v11c0 12-3 16-9 19s-20 2-25-1zm50 1c-7-4-8-7-7-35V52h9v26l1 25c2 2 10 3 13 3 9-2 9-2 9-30V51h9v28c0 26-1 27-3 29l-7 4c-5 2-19 2-24 0zm58 1l-1-12V90l-8-18-9-19 4-2c5 0 5 0 11 14l7 14 7-14c7-14 7-14 11-14 3 0 5 1 5 2l-9 17-8 17-1 13v13h-9zm37-1c-5-2-8-7-8-14v-5h5c4 0 4 0 4 3l2 7c2 2 4 3 10 3l8-2c3-2 3-12 1-14l-12-5c-14-6-16-8-16-17 0-7 0-8 3-12s4-4 13-5c10 0 13 1 18 5 4 3 4 4 4 9v6h-4c-4 0-4 0-4-3 0-7-6-10-15-9-5 1-8 5-6 10 0 3 3 4 12 8 15 6 18 9 18 19 1 8-1 12-7 15s-20 4-26 1zM21 80V49h9v13l1 12 11 1h10l1-13V49h10l-1 31v31h-9V97l-1-14H30v28h-9V80zm53 30V49h35v9H84v17h24v8H84v20h26v4l-1 4H92l-18-1zm39 0l9-31 9-30h4l5 1c2 2 19 59 18 60l-5 1c-3 0-4-1-6-8l-2-8h-19l-2 8c-2 7-2 8-6 8l-5-1zm29-24l-6-21-3 7-3 13c-1 2-1 3 6 3 5 0 7-1 6-2zm23-6V49h12c16 0 22 1 26 6l3 4v21c0 21 0 21-3 25-4 4-11 6-27 6h-11V80zm28 21c3-2 3-3 3-21 0-22 0-22-14-22h-8v45h8c6 0 10-1 11-2zm29 8c-5-3-7-8-7-14 1-4 1-4 5-4s4 0 5 5c1 6 4 8 12 7 9-1 13-7 9-14l-13-6c-13-6-17-9-17-18 0-12 6-16 20-16 11 0 16 2 18 8 2 2 2 6 2 8 0 3-1 3-5 3s-4 0-5-4c-1-8-12-11-18-5s-3 10 11 15l14 7c3 3 3 5 3 12 0 10-2 14-8 17-6 2-20 2-26-1z"/><path fill="#98fe32" d="M264 81V34h95v95h-95V81zm112 31c-9-4-9-5-9-29s1-27 7-30c6-2 20-2 25 0s9 9 8 14c0 3-1 4-4 4-5 0-5-1-5-4-1-6-5-9-13-8s-9 2-9 24 1 23 11 23c8 0 11-2 11-10v-6h-6c-6-1-6-1-6-4s0-3 10-3h11v8c1 12-1 17-7 20-7 3-19 3-24 1zm50 0l-7-4c-2-3-2-5-2-30V52h9v25l1 26 3 2c4 2 8 2 14 0l4-2 1-26V53l4-1h5v27c0 29-1 31-9 34-5 2-18 2-23 0zm56 1l-1-12V89l-8-18-9-19 4-1c5 0 5 0 11 14l7 14 4-8c6-13 11-20 14-20l4 1-8 17-8 17-1 13v14h-9zm37-2c-5-2-8-6-8-14 0-4 0-4 5-4 4 0 4 0 4 4 0 7 6 10 15 9 6-1 7-3 7-9 1-7 0-8-15-13-12-5-14-7-14-17 0-11 5-16 19-16 13 0 19 5 19 15 0 5 0 5-4 5-3 0-4-1-4-4-1-6-5-8-11-8-7 0-11 3-11 8s1 5 14 10c15 6 17 8 17 19 0 10-2 13-9 16-6 2-18 2-24-1zm-497-1V49h7l1 13v13h23V63l1-13 4-1h4v62h-3c-6 1-6-2-6-16V83H30v14l-1 14h-3l-4-1zm53 0c-1-2-2-57 0-60l17-1h16v8H96l-12 1v17h24v8H84v19l13 1h12v8H93l-18-1zm39 1c-1-1 16-59 18-61l5-1h3l10 30 8 31c-1 1-6 2-8 0l-3-8-2-7h-19l-2 7-3 8-7 1zm28-25l-3-12-3-11-3 9-4 13c0 2 0 3 7 3 5 0 7-1 6-2zm24 24l-1-31 1-30h10c15 0 23 1 27 6 3 4 3 4 3 25 0 23 0 24-8 28-5 3-31 4-32 2zm28-9c2-2 2-4 2-21 0-23 1-22-13-22h-9v45l9-1 11-1zm30 8c-6-2-8-6-8-12v-6h4c4 0 4 0 5 5 0 3 1 5 4 6 5 3 15 2 18-2 1-3 1-10-1-12l-13-6c-13-5-17-8-17-17 0-7 3-12 8-14 6-3 19-3 24 0 5 2 9 9 8 14 0 3-1 3-5 3s-4 0-5-4c0-5-4-8-9-8-6 0-11 2-11 6-2 6 0 8 11 12 18 7 19 8 19 20 0 8-2 13-8 15-7 3-18 3-24 0z"/><path fill="#62ca32" d="M264 81V34h95v95h-95V81zm86 32v-4h-79v9h79v-5zm-52-16c10-2 11-4 11-28V47h-10v20c0 14-1 20-2 22l-6 1-7-1-1-22V48h-10v19l1 23c2 7 13 10 24 7zm30-8v-9h5c14 0 20-5 20-17l-2-9c-2-5-9-6-22-6h-12l1 25v25h10v-9zm0-25v-9h5c6 0 9 2 10 6 1 5 0 9-5 10-10 3-10 3-10-7zm48 48c-9-4-9-5-9-29s1-27 7-30c6-2 20-2 25 0s9 9 8 14c0 3-1 4-4 4-5 0-5-1-5-4-1-6-5-9-13-8s-9 2-9 24 1 23 11 23c8 0 11-2 11-10v-6h-6c-6-1-6-1-6-4s0-3 10-3h11v8c1 12-1 17-7 20-7 3-19 3-24 1zm50 0l-7-4c-2-3-2-5-2-30V52h9v25l1 26 3 2c4 2 8 2 14 0l4-2 1-26V53l4-1h5v27c0 29-1 31-9 34-5 2-18 2-23 0zm56 1l-1-12V89l-8-18-9-19 4-1c5 0 5 0 11 14l7 14 4-8c6-13 11-20 14-20l4 1-8 17-8 17-1 13v14h-9zm37-2c-5-2-8-6-8-14 0-4 0-4 5-4 4 0 4 0 4 4 0 7 6 10 15 9 6-1 7-3 7-9 1-7 0-8-15-13-12-5-14-7-14-17 0-11 5-16 19-16 13 0 19 5 19 15 0 5 0 5-4 5-3 0-4-1-4-4-1-6-5-8-11-8-7 0-11 3-11 8s1 5 14 10c15 6 17 8 17 19 0 10-2 13-9 16-6 2-18 2-24-1zm-497-1V49h7l1 13v13h23V63l1-13 4-1h4v62h-3c-6 1-6-2-6-16V83H30v14l-1 14h-3l-4-1zm53 0c-1-2-2-57 0-60l17-1h16v8H96l-12 1v17h24v8H84v19l13 1h12v8H93l-18-1zm39 1c-1-1 16-59 18-61l5-1h3l10 30 8 31c-1 1-6 2-8 0l-3-8-2-7h-19l-2 7-3 8-7 1zm28-25l-3-12-3-11-3 9-4 13c0 2 0 3 7 3 5 0 7-1 6-2zm24 24l-1-31 1-30h10c15 0 23 1 27 6 3 4 3 4 3 25 0 23 0 24-8 28-5 3-31 4-32 2zm28-9c2-2 2-4 2-21 0-23 1-22-13-22h-9v45l9-1 11-1zm30 8c-6-2-8-6-8-12v-6h4c4 0 4 0 5 5 0 3 1 5 4 6 5 3 15 2 18-2 1-3 1-10-1-12l-13-6c-13-5-17-8-17-17 0-7 3-12 8-14 6-3 19-3 24 0 5 2 9 9 8 14 0 3-1 3-5 3s-4 0-5-4c0-5-4-8-9-8-6 0-11 2-11 6-2 6 0 8 11 12 18 7 19 8 19 20 0 8-2 13-8 15-7 3-18 3-24 0z"/><path fill="#656565" d="M264 81V34h95v95h-95V81zm86 32v-5h-79v10h79v-5zm-49-16c3-1 6-3 7-5l1-23V48h-10v19c0 19 0 21-3 22-3 2-9 1-11-1s-2-4-2-21V47l-5 1h-5v20c0 24 0 26 7 29 6 2 15 2 21 0zm27-8v-9h6c8 0 15-2 17-6l1-11c1-8 0-9-3-12s-4-3-17-3l-14-1v51h10v-9zm0-26v-8h5c7 1 9 3 9 9 1 6-1 7-8 7h-6v-8zm48 49c-9-4-9-5-9-29s1-27 7-30c6-2 20-2 25 0s9 9 8 14c0 3-1 4-4 4-5 0-5-1-5-4-1-6-5-9-13-8s-9 2-9 24 1 23 11 23c8 0 11-2 11-10v-6h-6c-6-1-6-1-6-4s0-3 10-3h11v8c1 12-1 17-7 20-7 3-19 3-24 1zm50 0l-7-4c-2-3-2-5-2-30V52h9v25l1 26 3 2c4 2 8 2 14 0l4-2 1-26V53l4-1h5v27c0 29-1 31-9 34-5 2-18 2-23 0zm56 1l-1-12V89l-8-18-9-19 4-1c5 0 5 0 11 14l7 14 4-8c6-13 11-20 14-20l4 1-8 17-8 17-1 13v14h-9zm37-2c-5-2-8-6-8-14 0-4 0-4 5-4 4 0 4 0 4 4 0 7 6 10 15 9 6-1 7-3 7-9 1-7 0-8-15-13-12-5-14-7-14-17 0-11 5-16 19-16 13 0 19 5 19 15 0 5 0 5-4 5-3 0-4-1-4-4-1-6-5-8-11-8-7 0-11 3-11 8s1 5 14 10c15 6 17 8 17 19 0 10-2 13-9 16-6 2-18 2-24-1zm-497-1V49h7l1 13v13h23V63l1-13 4-1h4v62h-3c-6 1-6-2-6-16V83H30v14l-1 14h-3l-4-1zm53 0c-1-2-2-57 0-60l17-1h16v8H96l-12 1v17h24v8H84v19l13 1h12v8H93l-18-1zm39 1c-1-1 16-59 18-61l5-1h3l10 30 8 31c-1 1-6 2-8 0l-3-8-2-7h-19l-2 7-3 8-7 1zm28-25l-3-12-3-11-3 9-4 13c0 2 0 3 7 3 5 0 7-1 6-2zm24 24l-1-31 1-30h10c15 0 23 1 27 6 3 4 3 4 3 25 0 23 0 24-8 28-5 3-31 4-32 2zm28-9c2-2 2-4 2-21 0-23 1-22-13-22h-9v45l9-1 11-1zm30 8c-6-2-8-6-8-12v-6h4c4 0 4 0 5 5 0 3 1 5 4 6 5 3 15 2 18-2 1-3 1-10-1-12l-13-6c-13-5-17-8-17-17 0-7 3-12 8-14 6-3 19-3 24 0 5 2 9 9 8 14 0 3-1 3-5 3s-4 0-5-4c0-5-4-8-9-8-6 0-11 2-11 6-2 6 0 8 11 12 18 7 19 8 19 20 0 8-2 13-8 15-7 3-18 3-24 0z"/><path fill="#326500" d="M264 81V34h95v95h-95V81zm86 32v-5h-79v10h79v-5zm-49-16c3-1 6-3 7-5l1-23V48h-10v19c0 19 0 21-3 22-3 2-9 1-11-1s-2-4-2-21V47l-5 1h-5v20c0 24 0 26 7 29 6 2 15 2 21 0zm27-8v-9h6c8 0 15-2 17-6l1-11c1-8 0-9-3-12s-4-3-17-3l-14-1v51h10v-9zm0-26v-8h5c7 1 9 3 9 9 1 6-1 7-8 7h-6v-8zm49 49c-3 0-6-2-7-4-2-3-2-5-2-25 0-21 0-23 2-26 6-8 27-8 34 0 2 2 2 4 2 8 0 5-1 6-3 6-3 0-4-1-4-5l-4-5c-3-3-13-3-16 0-3 2-3 2-3 22 0 19 0 19 3 21 4 3 12 3 16 0 3-2 4-4 4-8v-6h-6c-7 0-7 0-7-4v-3h20v11c0 11 0 12-3 15-5 4-17 6-26 3zm50 0l-7-4c-3-3-3-4-3-29V53h9v49l3 3 10 1c10-1 10 0 10-29V52h9v25l-2 28c0 2-3 5-5 6-5 2-19 3-24 1zm95 0c-6-1-10-6-10-13 0-6 0-6 4-6 3 0 3 1 4 5 1 6 4 8 12 8 7 0 12-4 12-9s-4-9-15-13c-12-4-16-8-16-16 0-7 1-11 5-14 4-2 16-3 23-2 7 2 9 6 10 13 0 5 0 6-4 6-3 0-4-1-4-4-1-6-4-8-11-8-8 0-11 2-11 8 0 5 2 6 15 11s15 7 15 18c0 7 0 9-2 12-4 5-17 7-27 4zm-41-11V89l-8-18-9-18h9l7 13 6 14 7-14c7-13 7-13 11-13h5l-10 18-9 19v23h-9v-12zm-256 9c-6-3-9-7-9-14 0-6 0-6 4-6 3 0 4 0 4 4 0 6 5 10 12 10 8 0 11-3 11-9 1-7-1-8-14-13l-14-7c-2-3-3-11-2-17 2-6 9-9 19-9 13 0 20 5 19 14-1 4-1 5-4 5-2 0-3-1-4-4-1-6-4-8-11-8-9 0-13 6-10 13 1 1 6 4 13 6 15 5 17 8 17 19 0 7-1 9-3 12-6 5-19 7-28 4zM21 80V50h9v25h24V50h9v60h-9V83H30v27h-9V80zm54 0V50h34v3c0 3 0 3-13 3H84v19h11c12 1 12 1 12 4s0 3-12 3l-11 1v19l13 1h12l1 4v3H75V80zm39 29l14-47 3-12h5l5 1 5 19 9 30 4 10h-5c-4-1-5-1-7-7l-2-7h-19l-2 7c-2 6-3 6-6 7l-4-1zm28-22l-3-14c-3-12-4-12-5-8a187 187 0 0 1-5 21c0 1 3 2 7 2l6-1zm23-7V50h15c16 0 22 2 25 8l1 22c0 28-1 30-27 30h-14V80zm30 20c2-2 3-4 3-19l-2-20c-1-3-8-5-16-5h-6v46h9c8 0 10 0 12-2z"/><path fill="#020202" d="M264 81V34h95v95h-95V81zm87 32v-5h-81v11h81v-6zm-49-16c7-4 8-6 8-29l-1-21h-10v20l-1 20-3 2h-7l-4-1V67l-1-20-5-1h-5v22l1 25c3 6 20 8 28 4zm26-7V80h9c8-1 10-1 13-4 2-3 3-5 3-10 1-9-1-14-6-17-3-2-6-2-17-2h-13v24 26l5 2h6v-9zm0-26v-8h6c7 0 9 2 9 7 0 6-3 8-10 8h-6l1-7zm51 49c-6-2-9-4-10-8l-1-24c0-24 0-26 11-29 15-3 27 2 27 13 0 5 0 5-3 5-4 0-4 0-4-3 0-5-4-8-12-8-10 0-11 1-11 24 0 19 0 19 3 21l9 2c8 0 11-3 11-10v-6h-6c-7 0-7 0-7-4v-3h20v11c0 9 0 11-2 14-4 5-15 7-25 5zm50 0c-5-2-9-4-10-7l-1-28V53h7v48l3 3c4 3 14 3 18 0 3-2 3-2 3-27V53h9v24c0 16-1 27-2 28l-5 5c-4 3-16 4-22 3zm94-1c-7-1-10-5-11-12l-1-6h4c5 0 5 0 5 4 0 6 4 8 12 8s12-3 12-9-2-8-14-13c-7-2-13-5-14-7-3-3-4-12-2-17s8-8 17-8c14 0 20 4 20 14 0 4 0 4-4 4s-4 0-4-4c0-6-3-7-12-7-7 0-10 2-10 8 0 5 2 6 16 12l12 6c3 3 3 18 1 21-3 6-17 9-27 6zm-41-10V91l-9-20-9-19 4 1c5 0 5 0 11 14l7 14 7-14c7-13 8-14 11-14h4l-9 18-9 18v23l-4 1h-3l-1-11zm-254 8c-9-2-12-5-12-14 0-4 0-5 4-5 3 0 4 1 4 4 0 6 4 9 11 9 10 0 12-3 12-10 1-6 0-7-15-13-13-5-14-7-14-17 0-7 0-8 3-11 5-4 14-5 22-3s12 6 12 13c0 4 0 5-4 5-3 0-3-1-3-4 0-5-5-8-12-8-8 0-11 3-11 9 0 4 2 6 15 11l12 6c3 3 4 4 4 12 0 7-1 9-3 11-5 5-16 7-25 5zM21 80V50h9v25h24V50h7v60h-7V83H30v27h-9V80zm54 0V50h34v6H83v19h23v8H82l1 10v10l13 1c12 0 13 1 13 3s-1 2-17 3H75V80zm39 29a1462 1462 0 0 1 17-59h5l4 1 9 28 8 30-3 1c-4-1-5-1-6-7l-2-7-10-1h-10l-3 7c-2 8-2 8-6 8l-3-1zm28-24l-4-15-3-11-1 8a144 144 0 0 1-7 21l8 1h8l-1-4zm23-5V50h16c18 1 22 2 24 10 2 6 2 34 0 40-2 8-8 10-26 10h-14V80zm30 21c2-2 3-4 3-21 0-22-1-23-15-24h-9v48l9-1c7 0 10-1 12-2z"/></svg>