<svg xmlns="http://www.w3.org/2000/svg" width="554" height="233" version="1"><path d="M456 100l-28-11-8 11a108 108 0 0 1 8 11h32a43 43 0 0 0 4-2c-1-4-4-7-8-9zm1 25h-18v10a131 131 0 0 1 7 35l2 1c3-11 8-21 16-29v-6l-7-11zm44 4c-7 0-15 2-21 5l6 10a40 40 0 0 1 55 37 40 40 0 0 1-79 7h-12a52 52 0 1 0 51-59z"/><path d="M450 174h12c2-8 6-16 12-22l-6-10c-10 8-16 19-18 32z"/><path d="M501 186a5 5 0 0 0 5-7l-38-59 7-4c6-4 14-11 17-21a5 5 0 0 0-9-5 10 10 0 0 1-10 17l-2-1a45 45 0 0 1-11 7h-31l5 10h24l34 53h-46a155 155 0 0 1 0 10h55z"/><circle cx="223" cy="417" r="22" transform="rotate(-59)"/><path d="M444 184c0-12-1-23-3-33a123 123 0 0 0-23-51c6-9 13-18 21-25a66 66 0 0 1-8-22 10 10 0 0 1 10-11 10 10 0 0 1 10 10l1 2 1 6c4-7 5-14 1-19-6-7-19-10-31-1-17 13-26 23-36 43-5 11 5 25 9 29 5 6 16 21 21 44l2 27a12 12 0 1 0 25 1z"/><path d="M450 55a28 28 0 0 1-1-3 8 8 0 0 0-16 1c0 1 1 9 6 19 6 10 16 23 35 34a8 8 0 0 0 11-3c2-4 1-9-3-11-16-9-24-20-29-27l-3-10z"/><g transform="translate(206)"><path d="M178 94l-1-6-3 2 4 4zm-27 16a42 42 0 0 0 4-1c-1-5-4-8-8-10l-28-10-8 10 3 4c5 1 8 4 8 7h29z"/><path d="M135 183c0-12-1-23-3-32a123 123 0 0 0-23-52c6-9 13-18 21-25a67 67 0 0 1-8-22 10 10 0 0 1 10-11c5 0 9 5 10 10v2l2 6c4-7 5-14 1-19-6-7-19-10-31-1-17 13-26 23-36 43-5 11 5 25 8 29 6 6 17 21 22 44l2 27a12 12 0 1 0 25 1z"/><circle cx="65" cy="152" r="22" transform="rotate(-59)"/><path d="M155 158v-34h-4l-16 31 2 14 5 1c7 0 13-5 13-12z"/><path d="M211 175h-33l23-43a72 72 0 0 0-13-20h-17l9-11-1-4a10 10 0 0 1-10 11l-5-1-1-1a45 45 0 0 1-11 6h-32l5 10h14l-8 15 3 13 1 2 15-30h44l-28 53h-29a155 155 0 0 1 0 10h74v-10z"/><path d="M130 124v11l6-11h-6zm10-70a29 29 0 0 1 0-3 8 8 0 0 0-16 1c0 1 1 9 6 19 6 11 16 23 35 34a8 8 0 0 0 11-3c2-4 1-9-3-11-16-9-24-19-29-27l-4-10zm-24 52l3 5 1-1-4-4z"/></g><g transform="translate(104)"><path d="M178 94l-1-6-3 2 4 4zm-27 16a42 42 0 0 0 4-1c-1-5-4-8-8-10l-28-10-8 10 3 4c5 1 8 4 8 7h29z"/><path d="M135 183c0-12-1-23-3-32a123 123 0 0 0-23-52c6-9 13-18 21-25a67 67 0 0 1-8-22 10 10 0 0 1 10-11c5 0 9 5 10 10v2l2 6c4-7 5-14 1-19-6-7-19-10-31-1-17 13-26 23-36 43-5 11 5 25 8 29 6 6 17 21 22 44l2 27a12 12 0 1 0 25 1z"/><circle cx="65" cy="152" r="22" transform="rotate(-59)"/><path d="M155 158v-34h-4l-16 31 2 14 5 1c7 0 13-5 13-12z"/><path d="M211 175h-33l23-43a72 72 0 0 0-13-20h-17l9-11-1-4a10 10 0 0 1-10 11l-5-1-1-1a45 45 0 0 1-11 6h-32l5 10h14l-8 15 3 13 1 2 15-30h44l-28 53h-29a155 155 0 0 1 0 10h74v-10z"/><path d="M130 124v11l6-11h-6zm10-70a29 29 0 0 1 0-3 8 8 0 0 0-16 1c0 1 1 9 6 19 6 11 16 23 35 34a8 8 0 0 0 11-3c2-4 1-9-3-11-16-9-24-19-29-27l-4-10zm-24 52l3 5 1-1-4-4z"/></g><g transform="translate(1)"><path d="M178 94l-1-6-3 2 4 4zm-27 16a42 42 0 0 0 4-1c-1-5-4-8-8-10l-28-10-8 10 3 4c5 1 8 4 8 7h29z"/><path d="M135 183c0-12-1-23-3-32a123 123 0 0 0-23-52c6-9 13-18 21-25a67 67 0 0 1-8-22 10 10 0 0 1 10-11c5 0 9 5 10 10v2l2 6c4-7 5-14 1-19-6-7-19-10-31-1-17 13-26 23-36 43-5 11 5 25 8 29 6 6 17 21 22 44l2 27a12 12 0 1 0 25 1z"/><circle cx="65" cy="152" r="22" transform="rotate(-59)"/><path d="M155 158v-34h-4l-16 31 2 14 5 1c7 0 13-5 13-12z"/><path d="M211 175h-33l23-43a72 72 0 0 0-13-20h-17l9-11-1-4a10 10 0 0 1-10 11l-5-1-1-1a45 45 0 0 1-11 6h-32l5 10h14l-8 15 3 13 1 2 15-30h44l-28 53h-29a155 155 0 0 1 0 10h74v-10z"/><path d="M130 124v11l6-11h-6zm10-70a29 29 0 0 1 0-3 8 8 0 0 0-16 1c0 1 1 9 6 19 6 11 16 23 35 34a8 8 0 0 0 11-3c2-4 1-9-3-11-16-9-24-19-29-27l-4-10zm-24 52l3 5 1-1-4-4z"/></g><path d="M100 188h-9a40 40 0 1 1-24-44l7-11c-7-3-14-4-22-4a52 52 0 1 0 52 59h-4z"/><path d="M108 176H61l32-52-6-9-39 63-1 1v3l1 1v1h1v1h1l1 1h57v-10z"/><path d="M86 141l-7 10c6 6 11 14 13 23h12c-2-13-9-25-18-33z"/></svg>