<svg xmlns="http://www.w3.org/2000/svg" version="1" viewBox="0 0 430 512"><path d="M288 512c-13-2-23-9-26-21l-1-10v-2h24v2c1 4 2 7 5 9 4 4 11 2 13-3 1-3 1-6-1-8-1-2-5-4-14-8l-18-9c-5-5-7-10-7-17-1-15 9-26 25-30h14c12 2 21 9 24 20l1 9a125 125 0 0 1-24 0v-2l-2-4c-3-5-12-4-14 1v5c1 3 4 4 16 10 10 4 15 7 18 11 5 5 7 10 7 19l-1 7c-3 12-12 19-25 21h-14zM1 509l40-65 17-27 11-1h10v94H56v-9l1-9H33l-6 9-6 9H0l1-1zm56-40v-15l-7 11-7 11c-1 1 1 1 6 1h7l1-8zm27-6v-47h17c22 0 28 1 35 3 7 3 12 7 16 14 2 5 3 9 3 16s-1 11-4 16c-2 4-6 8-10 10l-2 1a1368 1368 0 0 0 18 32l1 2h-25l-12-22-12-23h5c9 0 12-1 15-4 4-4 4-11 2-16-1-2-3-5-5-5-3-2-6-2-12-2h-6v72H84v-47zm76 0v-47h32l1 3a10421 10421 0 0 1 17 57l8-30 9-29 16-1h16v94h-22v-7a4898 4898 0 0 1 1-62l-11 35-10 34h-16l-9-33-10-35c-1-1-1 0-1 9a6302 6302 0 0 1 1 57v2h-22v-47zm175 46l4-12-6-4-5-4h13l2-6 2-6 3 6 2 6h13l-6 4-5 4 4 12a99 99 0 0 1-10-7 107 107 0 0 0-11 7zM46 406a48 48 0 0 1-27-82c8-7 16-11 27-13h18a49 49 0 0 1 28 81c-8 7-16 12-26 14H46zm13-20c11-2 19-11 21-23 2-10-3-22-10-27-7-6-17-7-25-3a26 26 0 0 0-15 25c0 5 0 8 2 12 5 11 16 17 27 16zm47-27v-47h21l17 28 18 28v-56h23v94h-11l-10-1-18-28-18-28v12l1 28v17h-23v-47zm109 0v-47h24v35h30v-35h24v94h-24v-38h-30v38h-24v-47zm84 0v-47h53v21h-29v14h28v21h-28v16h29v22h-53v-47zm57 0v-47h44c9 2 14 4 19 9s7 11 8 20c1 6 0 12-3 17l-5 7a24 24 0 0 1-8 6 318 318 0 0 0 19 34h-25l-12-22-12-23h1c9 0 13-1 16-2 4-2 7-9 6-15-2-5-4-8-9-9l-9-1h-6v73h-24v-47zm-245-57c-17-2-31-12-39-27-3-7-4-13-4-21a49 49 0 0 1 21-40c13-9 30-11 45-6a49 49 0 0 1-23 94zm14-22c6-2 11-6 15-13 2-5 3-8 3-13l-1-7c-3-10-9-17-17-20-12-4-25 2-30 14-2 4-3 7-3 11 0 7 1 12 4 17 4 6 9 10 16 12l13-1zM20 254v-47h24v73h28v21H20v-47zm154 0l-15-47h24l10 32 10 33 9-33 10-32h24l-15 47-16 47h-25l-16-47zm73 0v-47h54v21h-30v14h29v21h-14l-15 1v15l15 1h15v21h-54v-47zM30 198a17410 17410 0 0 1-24-93l12-1 12 1 6 30 7 29 7-30 7-29 9-1h9l7 30a2296 2296 0 0 0 7 29l13-58 12-1 12 1-12 46-13 47H80l-7-30-7-30a1369 1369 0 0 0-14 60H30zm97-47v-47h21l29 2c6 2 9 4 13 8 5 5 8 12 8 20 1 13-5 24-15 29l-1 1a709 709 0 0 0 19 34h-25l-12-22-12-23h5c8 0 12-1 14-4 3-3 5-9 4-13s-4-7-7-9c-3-1-5-2-12-2h-5v73h-24v-47zm76 0v-47h24v94h-24v-47zm45 11v-37h-18v-21h60v21h-18v73h-24v-36zm45-11v-47h53v21h-29v15h28v21h-28v16h29v21h-53v-47zM106 97A49 49 0 0 1 87 6c12-6 27-8 41-3a48 48 0 0 1 33 44l-1 10c-3 20-18 35-38 39-5 1-10 2-16 1zm12-22c10-2 18-12 19-24 1-8-3-18-9-24-5-4-9-6-15-6-12 0-21 6-25 17-6 15 1 32 15 37 4 1 11 2 15 0zM26 59V23H8V2h60v21H50v73H26V59z"/></svg>